<svg xmlns="http://www.w3.org/2000/svg" viewBox="0 0 1254 1254"><path d="M 748.0,943.0 L 748.0,944.0 L 747.0,945.0 L 747.0,947.0 L 746.0,948.0 L 746.0,962.0 L 747.0,963.0 L 747.0,965.0 L 748.0,966.0 L 752.0,966.0 L 753.0,967.0 L 759.0,967.0 L 760.0,968.0 L 768.0,968.0 L 769.0,969.0 L 781.0,969.0 L 782.0,970.0 L 793.0,970.0 L 794.0,969.0 L 794.0,968.0 L 797.0,963.0 L 797.0,960.0 L 798.0,959.0 L 798.0,951.0 L 797.0,950.0 L 797.0,948.0 L 798.0,947.0 L 799.0,948.0 L 798.0,947.0 L 798.0,945.0 L 797.0,944.0 L 797.0,943.0 L 796.0,944.0 L 793.0,941.0 L 793.0,940.0 L 787.0,934.0 L 786.0,934.0 L 784.0,932.0 L 783.0,932.0 L 782.0,931.0 L 780.0,931.0 L 779.0,930.0 L 776.0,930.0 L 775.0,929.0 L 768.0,929.0 L 767.0,930.0 L 764.0,930.0 L 761.0,932.0 L 759.0,932.0 L 758.0,933.0 L 757.0,933.0 L 750.0,940.0 L 750.0,941.0 Z M 1044.0,860.0 L 1004.0,860.0 L 1001.0,863.0 L 1001.0,864.0 L 998.0,867.0 L 998.0,868.0 L 996.0,870.0 L 996.0,871.0 L 992.0,875.0 L 992.0,876.0 L 989.0,879.0 L 989.0,880.0 L 985.0,884.0 L 984.0,883.0 L 985.0,884.0 L 983.0,886.0 L 983.0,887.0 L 981.0,889.0 L 981.0,890.0 L 976.0,895.0 L 976.0,896.0 L 968.0,904.0 L 968.0,905.0 L 963.0,910.0 L 963.0,911.0 L 932.0,942.0 L 933.0,942.0 L 934.0,941.0 L 935.0,941.0 L 936.0,940.0 L 937.0,940.0 L 938.0,939.0 L 939.0,939.0 L 940.0,938.0 L 941.0,938.0 L 942.0,937.0 L 943.0,937.0 L 944.0,936.0 L 945.0,936.0 L 946.0,935.0 L 947.0,935.0 L 948.0,934.0 L 949.0,934.0 L 950.0,933.0 L 951.0,933.0 L 952.0,932.0 L 953.0,932.0 L 954.0,931.0 L 955.0,931.0 L 956.0,930.0 L 959.0,929.0 L 961.0,927.0 L 962.0,927.0 L 963.0,926.0 L 966.0,925.0 L 968.0,923.0 L 971.0,922.0 L 973.0,920.0 L 974.0,920.0 L 976.0,918.0 L 977.0,918.0 L 979.0,916.0 L 980.0,916.0 L 982.0,914.0 L 983.0,914.0 L 985.0,912.0 L 986.0,912.0 L 988.0,910.0 L 989.0,910.0 L 992.0,907.0 L 993.0,907.0 L 995.0,905.0 L 996.0,905.0 L 1000.0,901.0 L 1001.0,901.0 L 1004.0,898.0 L 1005.0,898.0 L 1010.0,893.0 L 1011.0,893.0 L 1018.0,886.0 L 1019.0,886.0 L 1044.0,861.0 Z M 631.0,869.0 L 635.0,869.0 L 635.0,868.0 L 636.0,867.0 L 637.0,868.0 L 637.0,869.0 L 638.0,869.0 L 640.0,872.0 L 640.0,871.0 L 639.0,870.0 L 641.0,867.0 L 640.0,866.0 L 641.0,865.0 L 643.0,865.0 L 645.0,863.0 L 647.0,863.0 L 649.0,861.0 L 650.0,861.0 L 653.0,859.0 L 654.0,860.0 L 655.0,860.0 L 656.0,859.0 L 657.0,859.0 L 658.0,860.0 L 659.0,859.0 L 660.0,860.0 L 661.0,859.0 L 664.0,861.0 L 666.0,859.0 L 667.0,860.0 L 668.0,859.0 L 671.0,859.0 L 633.0,859.0 L 635.0,859.0 L 637.0,861.0 L 636.0,862.0 L 636.0,863.0 L 637.0,862.0 L 638.0,863.0 L 638.0,864.0 L 637.0,865.0 L 636.0,865.0 L 636.0,867.0 L 635.0,868.0 L 634.0,868.0 L 633.0,869.0 Z M 1011.0,846.0 L 1012.0,847.0 L 1013.0,846.0 L 1016.0,848.0 L 1017.0,847.0 L 1023.0,847.0 L 1024.0,846.0 L 1025.0,847.0 L 1024.0,846.0 L 1025.0,845.0 L 1030.0,845.0 L 1012.0,845.0 Z M 662.0,573.0 L 660.0,573.0 L 642.0,587.0 L 631.0,594.0 L 620.0,603.0 L 613.0,607.0 L 606.0,613.0 L 595.0,620.0 L 574.0,636.0 L 560.0,645.0 L 557.0,648.0 L 542.0,658.0 L 539.0,661.0 L 535.0,663.0 L 528.0,669.0 L 526.0,669.0 L 502.0,644.0 L 502.0,643.0 L 507.0,639.0 L 503.0,642.0 L 502.0,641.0 L 501.0,642.0 L 490.0,631.0 L 488.0,630.0 L 470.0,630.0 L 470.0,653.0 L 471.0,654.0 L 471.0,666.0 L 472.0,667.0 L 472.0,676.0 L 473.0,677.0 L 473.0,683.0 L 474.0,684.0 L 474.0,690.0 L 475.0,691.0 L 475.0,695.0 L 476.0,696.0 L 476.0,701.0 L 477.0,702.0 L 477.0,706.0 L 478.0,707.0 L 478.0,710.0 L 479.0,711.0 L 479.0,714.0 L 480.0,715.0 L 482.0,726.0 L 484.0,730.0 L 484.0,733.0 L 485.0,734.0 L 490.0,751.0 L 492.0,754.0 L 493.0,759.0 L 495.0,762.0 L 495.0,764.0 L 503.0,780.0 L 504.0,784.0 L 509.0,789.0 L 518.0,802.0 L 526.0,811.0 L 532.0,820.0 L 540.0,829.0 L 540.0,830.0 L 547.0,838.0 L 553.0,847.0 L 558.0,852.0 L 561.0,857.0 L 692.0,857.0 L 693.0,856.0 L 651.0,812.0 L 651.0,811.0 L 634.0,794.0 L 634.0,793.0 L 575.0,732.0 L 574.0,730.0 L 575.0,729.0 L 571.0,725.0 L 570.0,726.0 L 562.0,718.0 L 562.0,717.0 L 565.0,715.0 L 568.0,715.0 L 569.0,714.0 L 574.0,713.0 L 581.0,709.0 L 588.0,707.0 L 596.0,703.0 L 608.0,695.0 L 613.0,690.0 L 618.0,687.0 L 629.0,676.0 L 629.0,675.0 L 635.0,669.0 L 635.0,668.0 L 641.0,661.0 L 642.0,658.0 L 648.0,650.0 L 650.0,646.0 L 650.0,644.0 L 655.0,635.0 L 656.0,629.0 L 658.0,626.0 L 658.0,623.0 L 660.0,618.0 L 661.0,607.0 L 662.0,606.0 Z M 548.0,419.0 L 544.0,423.0 L 544.0,424.0 L 541.0,427.0 L 541.0,428.0 L 537.0,432.0 L 537.0,433.0 L 535.0,435.0 L 535.0,436.0 L 532.0,439.0 L 532.0,440.0 L 530.0,442.0 L 530.0,443.0 L 528.0,445.0 L 528.0,446.0 L 526.0,448.0 L 526.0,449.0 L 524.0,451.0 L 524.0,452.0 L 520.0,457.0 L 520.0,458.0 L 519.0,459.0 L 519.0,460.0 L 517.0,462.0 L 516.0,465.0 L 514.0,467.0 L 514.0,468.0 L 513.0,469.0 L 513.0,470.0 L 512.0,471.0 L 512.0,472.0 L 511.0,473.0 L 510.0,476.0 L 508.0,478.0 L 508.0,479.0 L 507.0,480.0 L 507.0,481.0 L 506.0,482.0 L 506.0,483.0 L 503.0,488.0 L 503.0,490.0 L 502.0,491.0 L 502.0,492.0 L 501.0,493.0 L 501.0,494.0 L 498.0,499.0 L 498.0,501.0 L 497.0,502.0 L 497.0,503.0 L 495.0,506.0 L 495.0,508.0 L 493.0,511.0 L 501.0,511.0 L 502.0,512.0 L 510.0,512.0 L 511.0,511.0 L 530.0,511.0 L 531.0,512.0 L 544.0,512.0 L 545.0,513.0 L 549.0,513.0 L 550.0,514.0 L 553.0,514.0 L 554.0,515.0 L 557.0,515.0 L 558.0,516.0 L 560.0,516.0 L 561.0,517.0 L 562.0,517.0 L 563.0,518.0 L 564.0,518.0 L 565.0,519.0 L 568.0,520.0 L 570.0,522.0 L 571.0,522.0 L 573.0,524.0 L 572.0,525.0 L 573.0,524.0 L 574.0,525.0 L 575.0,525.0 L 584.0,533.0 L 584.0,534.0 L 587.0,537.0 L 587.0,538.0 L 589.0,540.0 L 589.0,541.0 L 592.0,546.0 L 592.0,548.0 L 593.0,549.0 L 593.0,550.0 L 594.0,551.0 L 594.0,553.0 L 595.0,554.0 L 595.0,557.0 L 596.0,558.0 L 596.0,559.0 L 597.0,559.0 L 598.0,560.0 L 597.0,561.0 L 597.0,562.0 L 599.0,562.0 L 600.0,563.0 L 599.0,564.0 L 601.0,564.0 L 601.0,563.0 L 602.0,562.0 L 603.0,563.0 L 604.0,563.0 L 605.0,562.0 L 606.0,562.0 L 607.0,563.0 L 610.0,560.0 L 611.0,561.0 L 611.0,560.0 L 613.0,558.0 L 615.0,560.0 L 616.0,559.0 L 615.0,560.0 L 614.0,559.0 L 614.0,558.0 L 613.0,558.0 L 610.0,555.0 L 610.0,554.0 L 610.0,555.0 L 609.0,556.0 L 607.0,554.0 L 610.0,551.0 L 611.0,551.0 L 613.0,549.0 L 612.0,548.0 L 614.0,546.0 L 615.0,546.0 L 616.0,547.0 L 615.0,548.0 L 616.0,547.0 L 615.0,546.0 L 617.0,544.0 L 618.0,544.0 L 619.0,543.0 L 620.0,544.0 L 619.0,543.0 L 621.0,541.0 L 622.0,541.0 L 625.0,538.0 L 626.0,538.0 L 627.0,539.0 L 626.0,538.0 L 629.0,535.0 L 630.0,535.0 L 633.0,532.0 L 634.0,532.0 L 636.0,530.0 L 637.0,530.0 L 639.0,528.0 L 640.0,528.0 L 643.0,525.0 L 644.0,525.0 L 647.0,522.0 L 648.0,522.0 L 650.0,520.0 L 651.0,520.0 L 654.0,517.0 L 655.0,517.0 L 657.0,515.0 L 658.0,515.0 L 665.0,508.0 L 665.0,507.0 L 667.0,505.0 L 667.0,504.0 L 669.0,502.0 L 669.0,501.0 L 670.0,500.0 L 669.0,499.0 L 669.0,498.0 L 668.0,497.0 L 668.0,496.0 L 667.0,495.0 L 667.0,494.0 L 666.0,493.0 L 666.0,492.0 L 665.0,491.0 L 665.0,490.0 L 664.0,489.0 L 663.0,486.0 L 661.0,484.0 L 661.0,483.0 L 659.0,481.0 L 659.0,480.0 L 656.0,477.0 L 656.0,476.0 L 652.0,472.0 L 652.0,471.0 L 635.0,454.0 L 634.0,454.0 L 630.0,450.0 L 629.0,450.0 L 625.0,446.0 L 624.0,446.0 L 622.0,444.0 L 623.0,443.0 L 622.0,444.0 L 621.0,444.0 L 619.0,442.0 L 620.0,441.0 L 619.0,442.0 L 618.0,442.0 L 617.0,441.0 L 618.0,440.0 L 617.0,441.0 L 616.0,441.0 L 615.0,440.0 L 612.0,439.0 L 610.0,437.0 L 609.0,437.0 L 608.0,436.0 L 605.0,435.0 L 603.0,433.0 L 601.0,433.0 L 598.0,431.0 L 596.0,431.0 L 595.0,430.0 L 593.0,430.0 L 592.0,429.0 L 591.0,429.0 L 590.0,428.0 L 588.0,428.0 L 585.0,426.0 L 582.0,426.0 L 581.0,425.0 L 579.0,425.0 L 578.0,424.0 L 575.0,424.0 L 574.0,423.0 L 571.0,423.0 L 570.0,422.0 L 567.0,422.0 L 566.0,421.0 L 563.0,421.0 L 562.0,420.0 L 556.0,420.0 L 555.0,419.0 Z M 578.0,387.0 L 560.0,405.0 L 564.0,405.0 L 565.0,406.0 L 569.0,406.0 L 570.0,407.0 L 574.0,407.0 L 575.0,408.0 L 578.0,408.0 Z M 738.0,306.0 L 736.0,306.0 L 735.0,307.0 L 731.0,307.0 L 730.0,308.0 L 727.0,308.0 L 726.0,309.0 L 722.0,309.0 L 721.0,310.0 L 719.0,310.0 L 718.0,311.0 L 715.0,311.0 L 714.0,312.0 L 711.0,312.0 L 710.0,313.0 L 708.0,313.0 L 707.0,314.0 L 704.0,314.0 L 703.0,315.0 L 701.0,315.0 L 700.0,316.0 L 698.0,316.0 L 697.0,317.0 L 695.0,317.0 L 694.0,318.0 L 692.0,318.0 L 689.0,320.0 L 687.0,320.0 L 686.0,321.0 L 684.0,321.0 L 681.0,323.0 L 679.0,323.0 L 678.0,324.0 L 675.0,325.0 L 675.0,473.0 L 677.0,475.0 L 677.0,476.0 L 679.0,479.0 L 680.0,479.0 L 683.0,476.0 L 684.0,476.0 L 687.0,473.0 L 688.0,473.0 L 692.0,469.0 L 693.0,469.0 L 697.0,465.0 L 698.0,465.0 L 701.0,462.0 L 702.0,462.0 L 707.0,457.0 L 708.0,457.0 L 712.0,453.0 L 713.0,453.0 L 716.0,450.0 L 717.0,450.0 L 720.0,447.0 L 721.0,447.0 L 726.0,442.0 L 727.0,442.0 L 731.0,438.0 L 732.0,438.0 L 735.0,435.0 L 736.0,435.0 L 738.0,433.0 Z" fill="#012443" fill-rule="evenodd"/><path d="M 633.0,859.0 L 635.0,859.0 L 637.0,861.0 L 636.0,862.0 L 636.0,863.0 L 637.0,862.0 L 638.0,863.0 L 638.0,864.0 L 637.0,865.0 L 636.0,865.0 L 636.0,867.0 L 635.0,868.0 L 634.0,868.0 L 633.0,869.0 L 630.0,869.0 L 631.0,869.0 L 632.0,870.0 L 631.0,871.0 L 629.0,871.0 L 628.0,870.0 L 622.0,870.0 L 621.0,869.0 L 622.0,868.0 L 624.0,868.0 L 622.0,868.0 L 621.0,869.0 L 618.0,869.0 L 617.0,870.0 L 613.0,870.0 L 613.0,871.0 L 612.0,872.0 L 611.0,872.0 L 609.0,874.0 L 608.0,874.0 L 605.0,877.0 L 604.0,877.0 L 604.0,878.0 L 603.0,879.0 L 602.0,879.0 L 601.0,880.0 L 601.0,881.0 L 599.0,883.0 L 599.0,884.0 L 597.0,887.0 L 597.0,892.0 L 598.0,893.0 L 598.0,900.0 L 599.0,901.0 L 600.0,901.0 L 604.0,905.0 L 605.0,905.0 L 607.0,907.0 L 608.0,907.0 L 611.0,910.0 L 612.0,910.0 L 614.0,912.0 L 615.0,912.0 L 617.0,914.0 L 618.0,914.0 L 620.0,916.0 L 621.0,916.0 L 623.0,918.0 L 624.0,918.0 L 629.0,922.0 L 632.0,923.0 L 634.0,925.0 L 635.0,925.0 L 640.0,928.0 L 642.0,928.0 L 643.0,929.0 L 643.0,930.0 L 644.0,929.0 L 645.0,929.0 L 646.0,930.0 L 645.0,931.0 L 646.0,930.0 L 648.0,930.0 L 651.0,932.0 L 650.0,933.0 L 649.0,933.0 L 650.0,933.0 L 651.0,934.0 L 652.0,934.0 L 657.0,937.0 L 658.0,936.0 L 659.0,937.0 L 656.0,934.0 L 655.0,934.0 L 654.0,933.0 L 653.0,933.0 L 652.0,932.0 L 651.0,932.0 L 646.0,929.0 L 646.0,928.0 L 648.0,926.0 L 648.0,925.0 L 647.0,924.0 L 648.0,923.0 L 648.0,919.0 L 650.0,916.0 L 649.0,915.0 L 650.0,914.0 L 652.0,914.0 L 653.0,913.0 L 654.0,913.0 L 654.0,912.0 L 656.0,910.0 L 656.0,908.0 L 657.0,907.0 L 657.0,903.0 L 658.0,902.0 L 658.0,901.0 L 657.0,900.0 L 657.0,892.0 L 655.0,890.0 L 655.0,889.0 L 654.0,889.0 L 653.0,888.0 L 653.0,887.0 L 652.0,888.0 L 651.0,887.0 L 651.0,886.0 L 649.0,884.0 L 649.0,883.0 L 646.0,880.0 L 647.0,879.0 L 646.0,878.0 L 645.0,879.0 L 641.0,875.0 L 642.0,874.0 L 640.0,872.0 L 640.0,871.0 L 641.0,870.0 L 640.0,869.0 L 640.0,868.0 L 641.0,867.0 L 640.0,866.0 L 641.0,865.0 L 643.0,865.0 L 645.0,863.0 L 647.0,863.0 L 649.0,861.0 L 650.0,861.0 L 653.0,859.0 L 654.0,860.0 L 655.0,860.0 L 656.0,859.0 L 657.0,859.0 L 658.0,860.0 L 659.0,859.0 L 660.0,860.0 L 661.0,859.0 L 664.0,861.0 L 666.0,859.0 L 667.0,860.0 L 668.0,859.0 L 671.0,859.0 Z M 645.0,917.0 L 646.0,918.0 L 643.0,921.0 L 642.0,921.0 L 641.0,920.0 L 644.0,917.0 Z M 617.0,870.0 L 618.0,869.0 L 621.0,869.0 L 622.0,870.0 L 621.0,871.0 L 618.0,871.0 Z M 1010.0,845.0 L 1012.0,847.0 L 1013.0,846.0 L 1016.0,848.0 L 1017.0,847.0 L 1023.0,847.0 L 1024.0,846.0 L 1025.0,847.0 L 1024.0,846.0 L 1025.0,845.0 L 1030.0,845.0 Z M 777.0,650.0 L 777.0,653.0 L 775.0,655.0 L 773.0,655.0 L 772.0,656.0 L 773.0,657.0 L 772.0,658.0 L 771.0,658.0 L 771.0,659.0 L 770.0,660.0 L 769.0,659.0 L 769.0,660.0 L 766.0,663.0 L 765.0,662.0 L 765.0,661.0 L 764.0,662.0 L 763.0,661.0 L 762.0,662.0 L 761.0,661.0 L 761.0,660.0 L 761.0,661.0 L 760.0,662.0 L 759.0,661.0 L 759.0,664.0 L 758.0,665.0 L 757.0,664.0 L 757.0,663.0 L 757.0,664.0 L 758.0,665.0 L 757.0,666.0 L 758.0,665.0 L 759.0,666.0 L 759.0,667.0 L 758.0,668.0 L 758.0,670.0 L 759.0,671.0 L 759.0,672.0 L 760.0,671.0 L 761.0,672.0 L 761.0,674.0 L 763.0,674.0 L 764.0,675.0 L 763.0,676.0 L 764.0,675.0 L 765.0,676.0 L 764.0,675.0 L 765.0,674.0 L 766.0,674.0 L 771.0,677.0 L 771.0,685.0 L 770.0,686.0 L 769.0,685.0 L 769.0,684.0 L 769.0,686.0 L 767.0,688.0 L 768.0,687.0 L 769.0,688.0 L 769.0,692.0 L 770.0,692.0 L 771.0,693.0 L 771.0,695.0 L 772.0,696.0 L 771.0,697.0 L 771.0,698.0 L 772.0,699.0 L 773.0,702.0 L 774.0,702.0 L 775.0,703.0 L 775.0,704.0 L 776.0,703.0 L 777.0,704.0 L 776.0,703.0 L 777.0,702.0 L 778.0,702.0 L 778.0,701.0 L 780.0,699.0 L 781.0,700.0 L 780.0,699.0 L 782.0,697.0 L 783.0,698.0 L 783.0,699.0 L 783.0,695.0 L 782.0,694.0 L 783.0,693.0 L 784.0,693.0 L 785.0,694.0 L 784.0,693.0 L 785.0,692.0 L 784.0,693.0 L 783.0,692.0 L 783.0,690.0 L 782.0,691.0 L 781.0,690.0 L 781.0,687.0 L 781.0,689.0 L 780.0,690.0 L 779.0,689.0 L 779.0,682.0 L 779.0,683.0 L 778.0,684.0 L 777.0,683.0 L 777.0,677.0 L 776.0,676.0 L 777.0,675.0 L 777.0,669.0 L 779.0,667.0 L 778.0,666.0 L 781.0,663.0 L 781.0,661.0 L 780.0,662.0 L 777.0,660.0 Z M 659.0,332.0 L 658.0,333.0 L 657.0,333.0 L 656.0,334.0 L 655.0,334.0 L 654.0,335.0 L 653.0,335.0 L 652.0,336.0 L 651.0,336.0 L 650.0,337.0 L 649.0,337.0 L 648.0,338.0 L 647.0,338.0 L 646.0,339.0 L 645.0,339.0 L 644.0,340.0 L 641.0,341.0 L 639.0,343.0 L 638.0,343.0 L 637.0,344.0 L 634.0,345.0 L 632.0,347.0 L 629.0,348.0 L 627.0,350.0 L 626.0,350.0 L 624.0,352.0 L 623.0,352.0 L 621.0,354.0 L 620.0,354.0 L 618.0,356.0 L 617.0,356.0 L 615.0,358.0 L 614.0,358.0 L 612.0,360.0 L 611.0,360.0 L 608.0,363.0 L 607.0,363.0 L 605.0,365.0 L 604.0,365.0 L 600.0,369.0 L 599.0,369.0 L 596.0,372.0 L 595.0,372.0 L 594.0,373.0 L 594.0,412.0 L 597.0,414.0 L 599.0,414.0 L 600.0,415.0 L 602.0,415.0 L 603.0,416.0 L 605.0,416.0 L 606.0,417.0 L 607.0,417.0 L 608.0,418.0 L 609.0,418.0 L 610.0,419.0 L 613.0,420.0 L 614.0,421.0 L 613.0,422.0 L 614.0,421.0 L 615.0,421.0 L 616.0,422.0 L 617.0,422.0 L 618.0,423.0 L 619.0,423.0 L 620.0,424.0 L 623.0,425.0 L 625.0,427.0 L 626.0,427.0 L 628.0,429.0 L 629.0,429.0 L 631.0,431.0 L 632.0,431.0 L 634.0,433.0 L 635.0,433.0 L 637.0,435.0 L 638.0,435.0 L 642.0,439.0 L 643.0,439.0 L 649.0,445.0 L 650.0,445.0 L 658.0,453.0 L 659.0,452.0 L 658.0,451.0 L 658.0,450.0 L 659.0,449.0 L 658.0,448.0 L 658.0,446.0 L 659.0,445.0 Z M 754.0,303.0 L 754.0,418.0 L 780.0,398.0 L 787.0,399.0 L 802.0,383.0 L 805.0,387.0 L 811.0,383.0 L 811.0,392.0 L 676.0,500.0 L 672.0,518.0 L 617.0,559.0 L 607.0,554.0 L 612.0,548.0 L 597.0,559.0 L 591.0,545.0 L 598.0,560.0 L 595.0,575.0 L 505.0,641.0 L 490.0,631.0 L 529.0,668.0 L 660.0,573.0 L 662.0,582.0 L 663.0,571.0 L 716.0,530.0 L 729.0,528.0 L 729.0,522.0 L 779.0,480.0 L 788.0,489.0 L 763.0,510.0 L 757.0,507.0 L 756.0,515.0 L 736.0,531.0 L 726.0,530.0 L 725.0,540.0 L 729.0,539.0 L 682.0,574.0 L 678.0,600.0 L 677.0,579.0 L 678.0,608.0 L 676.0,603.0 L 668.0,643.0 L 627.0,700.0 L 637.0,750.0 L 664.0,791.0 L 694.0,820.0 L 722.0,836.0 L 725.0,847.0 L 752.0,851.0 L 760.0,864.0 L 860.0,870.0 L 821.0,871.0 L 853.0,878.0 L 865.0,875.0 L 862.0,869.0 L 927.0,863.0 L 934.0,855.0 L 961.0,845.0 L 1010.0,801.0 L 1027.0,776.0 L 1039.0,743.0 L 1052.0,758.0 L 1006.0,843.0 L 1059.0,843.0 L 1097.0,782.0 L 1122.0,710.0 L 1126.0,631.0 L 1120.0,576.0 L 1103.0,507.0 L 1076.0,451.0 L 1044.0,409.0 L 983.0,356.0 L 996.0,371.0 L 998.0,382.0 L 1005.0,385.0 L 1036.0,443.0 L 1068.0,544.0 L 1074.0,656.0 L 1072.0,649.0 L 1064.0,662.0 L 1069.0,680.0 L 1067.0,705.0 L 1056.0,732.0 L 1051.0,734.0 L 1045.0,723.0 L 1043.0,632.0 L 1033.0,626.0 L 904.0,630.0 L 845.0,626.0 L 838.0,630.0 L 831.0,650.0 L 837.0,668.0 L 833.0,689.0 L 843.0,711.0 L 893.0,707.0 L 841.0,704.0 L 935.0,706.0 L 918.0,707.0 L 933.0,713.0 L 935.0,737.0 L 916.0,742.0 L 912.0,751.0 L 900.0,757.0 L 860.0,758.0 L 855.0,750.0 L 842.0,749.0 L 839.0,741.0 L 828.0,742.0 L 825.0,729.0 L 812.0,715.0 L 804.0,717.0 L 809.0,729.0 L 823.0,740.0 L 819.0,750.0 L 809.0,757.0 L 784.0,755.0 L 756.0,734.0 L 751.0,714.0 L 740.0,711.0 L 738.0,679.0 L 729.0,669.0 L 737.0,643.0 L 737.0,613.0 L 774.0,564.0 L 795.0,559.0 L 802.0,547.0 L 812.0,543.0 L 896.0,545.0 L 910.0,550.0 L 917.0,561.0 L 932.0,563.0 L 960.0,589.0 L 1026.0,518.0 L 1024.0,503.0 L 1016.0,501.0 L 990.0,471.0 L 960.0,453.0 L 927.0,444.0 L 922.0,437.0 L 876.0,432.0 L 863.0,424.0 L 866.0,407.0 L 896.0,382.0 L 923.0,407.0 L 928.0,405.0 L 945.0,334.0 L 885.0,311.0 L 845.0,321.0 L 837.0,334.0 L 852.0,338.0 L 855.0,354.0 L 822.0,380.0 L 817.0,378.0 L 821.0,301.0 Z M 835.0,770.0 L 836.0,769.0 L 850.0,769.0 L 851.0,770.0 L 850.0,771.0 L 836.0,771.0 Z M 853.0,769.0 L 854.0,768.0 L 860.0,768.0 L 861.0,769.0 L 860.0,770.0 L 854.0,770.0 Z M 825.0,769.0 L 826.0,768.0 L 834.0,768.0 L 835.0,769.0 L 834.0,770.0 L 826.0,770.0 Z M 893.0,761.0 L 890.0,763.0 L 888.0,763.0 L 887.0,764.0 L 885.0,764.0 L 884.0,765.0 L 881.0,765.0 L 880.0,764.0 L 881.0,763.0 L 883.0,763.0 L 884.0,762.0 L 886.0,762.0 L 887.0,761.0 L 889.0,761.0 L 890.0,760.0 L 892.0,760.0 Z M 779.0,754.0 L 780.0,753.0 L 781.0,753.0 L 784.0,755.0 L 783.0,756.0 L 781.0,756.0 Z M 912.0,753.0 L 911.0,754.0 L 910.0,754.0 L 905.0,757.0 L 903.0,757.0 L 902.0,756.0 L 903.0,755.0 L 904.0,755.0 L 909.0,752.0 L 911.0,752.0 Z M 1058.0,733.0 L 1059.0,734.0 L 1059.0,737.0 L 1058.0,738.0 L 1057.0,737.0 L 1057.0,734.0 Z M 936.0,712.0 L 937.0,713.0 L 937.0,736.0 L 936.0,737.0 L 935.0,736.0 L 935.0,713.0 Z M 737.0,706.0 L 739.0,708.0 L 739.0,710.0 L 738.0,711.0 L 736.0,708.0 L 736.0,707.0 Z M 1067.0,695.0 L 1068.0,696.0 L 1068.0,700.0 L 1067.0,701.0 L 1066.0,700.0 L 1066.0,696.0 Z M 732.0,690.0 L 733.0,691.0 L 733.0,694.0 L 732.0,695.0 L 731.0,694.0 L 731.0,691.0 Z M 1068.0,689.0 L 1069.0,690.0 L 1069.0,693.0 L 1068.0,694.0 L 1067.0,693.0 L 1067.0,690.0 Z M 731.0,686.0 L 732.0,687.0 L 732.0,690.0 L 731.0,691.0 L 730.0,690.0 L 730.0,687.0 Z M 1069.0,683.0 L 1070.0,684.0 L 1070.0,687.0 L 1069.0,688.0 L 1068.0,687.0 L 1068.0,684.0 Z M 730.0,680.0 L 731.0,681.0 L 731.0,685.0 L 730.0,686.0 L 729.0,685.0 L 729.0,681.0 Z M 1070.0,677.0 L 1071.0,678.0 L 1071.0,681.0 L 1070.0,682.0 L 1069.0,681.0 L 1069.0,678.0 Z M 729.0,669.0 L 730.0,670.0 L 730.0,679.0 L 729.0,680.0 L 728.0,679.0 L 728.0,670.0 Z M 1071.0,668.0 L 1072.0,669.0 L 1072.0,673.0 L 1071.0,674.0 L 1070.0,673.0 L 1070.0,669.0 Z M 1072.0,659.0 L 1073.0,660.0 L 1073.0,663.0 L 1072.0,664.0 L 1071.0,663.0 L 1071.0,660.0 Z M 728.0,653.0 L 729.0,654.0 L 729.0,669.0 L 728.0,670.0 L 727.0,669.0 L 727.0,654.0 Z M 729.0,644.0 L 730.0,645.0 L 730.0,651.0 L 729.0,652.0 L 728.0,651.0 L 728.0,645.0 Z M 730.0,638.0 L 731.0,639.0 L 731.0,643.0 L 730.0,644.0 L 729.0,643.0 L 729.0,639.0 Z M 897.0,634.0 L 898.0,633.0 L 904.0,633.0 L 905.0,634.0 L 904.0,635.0 L 898.0,635.0 Z M 842.0,634.0 L 843.0,633.0 L 851.0,633.0 L 852.0,634.0 L 851.0,635.0 L 843.0,635.0 Z M 1073.0,588.0 L 1074.0,589.0 L 1074.0,603.0 L 1073.0,604.0 L 1072.0,603.0 L 1072.0,589.0 Z M 1072.0,580.0 L 1073.0,581.0 L 1073.0,587.0 L 1072.0,588.0 L 1071.0,587.0 L 1071.0,581.0 Z M 1068.0,549.0 L 1069.0,550.0 L 1069.0,554.0 L 1068.0,555.0 L 1067.0,554.0 L 1067.0,550.0 Z M 704.0,540.0 L 705.0,541.0 L 702.0,544.0 L 701.0,544.0 L 700.0,543.0 L 703.0,540.0 Z M 837.0,538.0 L 838.0,537.0 L 841.0,537.0 L 842.0,538.0 L 841.0,539.0 L 838.0,539.0 Z M 849.0,537.0 L 850.0,536.0 L 859.0,536.0 L 860.0,537.0 L 859.0,538.0 L 850.0,538.0 Z M 710.0,535.0 L 711.0,536.0 L 708.0,539.0 L 707.0,539.0 L 706.0,538.0 L 709.0,535.0 Z M 747.0,506.0 L 748.0,507.0 L 745.0,510.0 L 744.0,510.0 L 743.0,509.0 L 746.0,506.0 Z M 802.0,464.0 L 803.0,465.0 L 803.0,468.0 L 804.0,469.0 L 804.0,470.0 L 805.0,471.0 L 805.0,473.0 L 806.0,474.0 L 799.0,481.0 L 798.0,481.0 L 796.0,483.0 L 794.0,481.0 L 793.0,481.0 L 792.0,482.0 L 791.0,481.0 L 791.0,479.0 L 790.0,478.0 L 790.0,477.0 L 788.0,475.0 L 792.0,471.0 L 788.0,475.0 L 787.0,475.0 L 786.0,474.0 L 791.0,469.0 L 792.0,469.0 L 795.0,466.0 L 796.0,466.0 L 797.0,467.0 L 796.0,468.0 L 799.0,466.0 L 800.0,466.0 L 801.0,467.0 L 801.0,466.0 L 800.0,465.0 L 801.0,464.0 Z M 818.0,453.0 L 819.0,452.0 L 820.0,452.0 L 821.0,453.0 L 823.0,453.0 L 824.0,454.0 L 822.0,456.0 L 821.0,456.0 Z M 818.0,453.0 L 819.0,454.0 L 819.0,457.0 L 820.0,458.0 L 820.0,459.0 L 819.0,460.0 L 819.0,462.0 L 818.0,463.0 L 818.0,464.0 L 817.0,465.0 L 816.0,465.0 L 816.0,466.0 L 815.0,467.0 L 809.0,467.0 L 807.0,465.0 L 807.0,466.0 L 806.0,467.0 L 805.0,466.0 L 805.0,465.0 L 804.0,466.0 L 802.0,464.0 L 803.0,463.0 L 803.0,462.0 L 806.0,460.0 L 805.0,461.0 L 804.0,461.0 L 803.0,460.0 L 808.0,455.0 L 809.0,455.0 L 810.0,456.0 L 809.0,455.0 L 812.0,452.0 L 813.0,452.0 L 814.0,453.0 L 812.0,455.0 L 815.0,452.0 L 816.0,452.0 L 817.0,453.0 L 817.0,454.0 L 816.0,455.0 Z M 825.0,442.0 L 826.0,443.0 L 822.0,447.0 L 821.0,447.0 L 820.0,446.0 L 824.0,442.0 Z M 899.0,436.0 L 900.0,435.0 L 903.0,435.0 L 904.0,436.0 L 903.0,437.0 L 900.0,437.0 Z M 893.0,435.0 L 894.0,434.0 L 898.0,434.0 L 899.0,435.0 L 898.0,436.0 L 894.0,436.0 Z M 885.0,434.0 L 886.0,433.0 L 891.0,433.0 L 892.0,434.0 L 891.0,435.0 L 886.0,435.0 Z M 873.0,433.0 L 874.0,432.0 L 881.0,432.0 L 882.0,433.0 L 881.0,434.0 L 874.0,434.0 Z M 857.0,433.0 L 858.0,432.0 L 862.0,432.0 L 863.0,433.0 L 862.0,434.0 L 858.0,434.0 Z M 856.0,416.0 L 857.0,417.0 L 856.0,418.0 L 856.0,419.0 L 857.0,420.0 L 855.0,422.0 L 852.0,419.0 L 855.0,416.0 Z M 928.0,394.0 L 929.0,395.0 L 929.0,398.0 L 928.0,399.0 L 928.0,402.0 L 927.0,403.0 L 926.0,402.0 L 926.0,398.0 L 927.0,397.0 L 927.0,395.0 Z M 929.0,390.0 L 930.0,391.0 L 930.0,394.0 L 929.0,395.0 L 928.0,394.0 L 928.0,391.0 Z M 794.0,387.0 L 795.0,388.0 L 792.0,391.0 L 791.0,391.0 L 790.0,390.0 L 793.0,387.0 Z M 936.0,362.0 L 937.0,363.0 L 937.0,366.0 L 936.0,367.0 L 935.0,366.0 L 935.0,363.0 Z M 937.0,358.0 L 938.0,359.0 L 938.0,362.0 L 937.0,363.0 L 936.0,362.0 L 936.0,359.0 Z M 938.0,354.0 L 939.0,355.0 L 939.0,358.0 L 938.0,359.0 L 937.0,358.0 L 937.0,355.0 Z M 939.0,350.0 L 940.0,351.0 L 940.0,354.0 L 939.0,355.0 L 938.0,354.0 L 938.0,351.0 Z M 941.0,342.0 L 942.0,343.0 L 942.0,346.0 L 941.0,347.0 L 940.0,346.0 L 940.0,343.0 Z M 942.0,338.0 L 943.0,339.0 L 943.0,342.0 L 942.0,343.0 L 941.0,342.0 L 941.0,339.0 Z M 820.0,302.0 L 821.0,303.0 L 821.0,326.0 L 820.0,327.0 L 819.0,326.0 L 819.0,303.0 Z" fill="#01AACA" fill-rule="evenodd"/></svg>